<svg width="60" height="60" viewBox="0 0 60 60" fill="none" xmlns="http://www.w3.org/2000/svg">
<rect width="59.1808" height="59.1808" rx="29.5904" fill="#FDDFAA"/>
<path fill-rule="evenodd" clip-rule="evenodd" d="M21.7285 15.3867C20.896 15.3867 20.0716 15.5507 19.3024 15.8693C18.5332 16.1879 17.8343 16.6549 17.2456 17.2436C16.0566 18.4326 15.3887 20.0451 15.3887 21.7265V38.6344C15.3887 40.3158 16.0566 41.9284 17.2456 43.1173C17.8343 43.706 18.5332 44.173 19.3024 44.4916C20.0716 44.8102 20.896 44.9742 21.7285 44.9742H38.6365C40.318 44.9742 41.9305 44.3063 43.1195 43.1173C44.3084 41.9284 44.9764 40.3158 44.9764 38.6344V21.7241C44.9757 20.0431 44.3075 18.4312 43.1186 17.2427C41.9297 16.0543 40.3175 15.3867 38.6365 15.3867H21.7285ZM30.1825 36.4636C31.8489 36.4636 33.4471 35.8016 34.6254 34.6233C35.8038 33.445 36.4657 31.8469 36.4657 30.1805C36.4657 28.5141 35.8038 26.9159 34.6254 25.7376C33.4471 24.5593 31.8489 23.8973 30.1825 23.8973C28.5161 23.8973 26.918 24.5593 25.7396 25.7376C24.5613 26.9159 23.8993 28.5141 23.8993 30.1805C23.8993 31.8469 24.5613 33.445 25.7396 34.6233C26.918 35.8016 28.5161 36.4636 30.1825 36.4636Z" fill="#FFA132"/>
<path d="M23.8994 30.1806C23.8994 31.0057 24.0619 31.8228 24.3777 32.5851C24.6935 33.3474 25.1563 34.04 25.7397 34.6235C26.3232 35.2069 27.0158 35.6697 27.7781 35.9855C28.5405 36.3012 29.3575 36.4638 30.1826 36.4638C31.0077 36.4638 31.8248 36.3012 32.5871 35.9855C33.3494 35.6697 34.0421 35.2069 34.6255 34.6235C35.209 34.04 35.6718 33.3474 35.9875 32.5851C36.3033 31.8228 36.4658 31.0057 36.4658 30.1806C36.4658 28.5142 35.8038 26.9161 34.6255 25.7378C33.4472 24.5594 31.849 23.8975 30.1826 23.8975C28.5162 23.8975 26.9181 24.5594 25.7397 25.7378C24.5614 26.9161 23.8994 28.5142 23.8994 30.1806Z" fill="#FDDFAA"/>
<path d="M23.8994 30.1806C23.8994 31.0057 24.0619 31.8228 24.3777 32.5851C24.6935 33.3474 25.1563 34.04 25.7397 34.6235C26.3232 35.2069 27.0158 35.6697 27.7781 35.9855C28.5405 36.3012 29.3575 36.4638 30.1826 36.4638C31.0077 36.4638 31.8248 36.3012 32.5871 35.9855C33.3494 35.6697 34.0421 35.2069 34.6255 34.6235C35.209 34.04 35.6718 33.3474 35.9875 32.5851C36.3033 31.8228 36.4658 31.0057 36.4658 30.1806C36.4658 28.5142 35.8038 26.9161 34.6255 25.7378C33.4472 24.5594 31.849 23.8975 30.1826 23.8975C28.5162 23.8975 26.9181 24.5594 25.7397 25.7378C24.5614 26.9161 23.8994 28.5142 23.8994 30.1806Z" stroke="#FF720B" stroke-width="1.18362" stroke-linecap="round" stroke-linejoin="round"/>
<path d="M15.3892 21.7265C15.3892 20.0451 16.0571 18.4326 17.2461 17.2436C18.435 16.0547 20.0476 15.3867 21.7291 15.3867H38.637C39.4696 15.3867 40.294 15.5507 41.0632 15.8693C41.8324 16.1879 42.5313 16.6549 43.12 17.2436C43.7087 17.8323 44.1757 18.5312 44.4943 19.3004C44.8129 20.0696 44.9769 20.894 44.9769 21.7265V38.6344C44.9769 40.3158 44.309 41.9284 43.12 43.1173C41.931 44.3063 40.3185 44.9742 38.637 44.9742H21.7266C20.0452 44.9742 18.4326 44.3063 17.2436 43.1173C16.0547 41.9284 15.3867 40.3158 15.3867 38.6344L15.3892 21.7265Z" stroke="#FF720B" stroke-width="1.18362" stroke-linecap="round" stroke-linejoin="round"/>
<path d="M38.7351 22.2515C38.5718 22.2515 38.4151 22.1866 38.2996 22.0711C38.184 21.9556 38.1191 21.7989 38.1191 21.6355C38.1191 21.4722 38.184 21.3155 38.2996 21.2C38.4151 21.0844 38.5718 21.0195 38.7351 21.0195M38.7351 22.2515C38.8985 22.2515 39.0552 22.1866 39.1707 22.0711C39.2862 21.9556 39.3511 21.7989 39.3511 21.6355C39.3511 21.4722 39.2862 21.3155 39.1707 21.2C39.0552 21.0844 38.8985 21.0195 38.7351 21.0195" stroke="#FDDFAA" stroke-width="1.18362" stroke-linecap="round" stroke-linejoin="round"/>
</svg>
