<svg width="60" height="60" viewBox="0 0 60 60" fill="none" xmlns="http://www.w3.org/2000/svg">
<rect width="59.1808" height="59.1808" rx="29.5904" fill="#FFE1AC"/>
<path d="M20.5643 17.087C20.571 17.874 20.2424 18.6319 19.6495 19.1967C19.0566 19.7615 18.2471 20.0878 17.396 20.1051C16.5468 20.0766 15.7418 19.7475 15.1475 19.1857C14.5533 18.624 14.2152 17.8727 14.2031 17.087C14.2398 16.3213 14.5902 15.5972 15.1832 15.0616C15.7761 14.5261 16.5673 14.2191 17.396 14.2031C18.2223 14.2194 19.0107 14.5271 19.5996 15.0632C20.1886 15.5994 20.5337 16.3233 20.5643 17.087ZM14.5453 25.4677C14.5453 23.7333 15.7393 24.0041 17.396 24.0041C19.0528 24.0041 20.2221 23.7333 20.2221 25.4677V42.3656C20.2221 44.1228 19.0282 43.7632 17.396 43.7632C15.7639 43.7632 14.5453 44.1228 14.5453 42.3656V25.4677ZM25.1457 25.47C25.1457 24.5003 25.5346 24.1384 26.1427 24.0269C26.7507 23.9154 28.8506 24.0269 29.5793 24.0269C30.3104 24.0269 30.6034 25.1308 30.5788 25.9639C31.2033 25.1872 32.0332 24.572 32.989 24.1774C33.9447 23.7828 34.9942 23.622 36.0365 23.7105C37.06 23.6527 38.0851 23.7946 39.0454 24.127C40.0057 24.4594 40.8797 24.9748 41.6105 25.6398C42.3413 26.3048 42.9127 27.1045 43.2875 27.9869C43.6623 28.8694 43.8322 29.8148 43.7861 30.7619V42.2974C43.7861 44.0545 42.6168 43.6949 40.9576 43.6949C39.2983 43.6949 38.1315 44.0545 38.1315 42.2974V33.2839C38.174 32.8204 38.1082 32.3538 37.9385 31.9159C37.7689 31.4779 37.4993 31.0788 37.1481 30.7457C36.7969 30.4126 36.3723 30.1532 35.9032 29.9852C35.434 29.8171 34.9312 29.7444 34.429 29.7718C33.9284 29.7596 33.4308 29.846 32.9691 30.0251C32.5074 30.2042 32.0921 30.472 31.7509 30.8108C31.4096 31.1496 31.1501 31.5516 30.9896 31.9901C30.8292 32.4286 30.7713 32.8937 30.82 33.3545V42.3656C30.82 44.1228 29.6261 43.7632 27.9693 43.7632C26.3125 43.7632 25.1432 44.1228 25.1432 42.3656L25.1457 25.47Z" fill="#FFA132"/>
<path d="M20.5643 17.087C20.571 17.874 20.2424 18.6319 19.6495 19.1967C19.0566 19.7615 18.2471 20.0878 17.396 20.1051C16.5468 20.0766 15.7418 19.7475 15.1475 19.1857C14.5533 18.624 14.2152 17.8727 14.2031 17.087C14.2398 16.3213 14.5902 15.5972 15.1832 15.0616C15.7761 14.5261 16.5673 14.2191 17.396 14.2031C18.2223 14.2194 19.0107 14.5271 19.5997 15.0632C20.1886 15.5994 20.5337 16.3233 20.5643 17.087ZM14.5453 25.4677C14.5453 23.7333 15.7393 24.0041 17.396 24.0041C19.0528 24.0041 20.2221 23.7333 20.2221 25.4677V42.3656C20.2221 44.1228 19.0282 43.7632 17.396 43.7632C15.7639 43.7632 14.5453 44.1228 14.5453 42.3656V25.4677ZM25.1457 25.47C25.1457 24.5003 25.5346 24.1384 26.1427 24.0269C26.7507 23.9154 28.8506 24.0269 29.5793 24.0269C30.3104 24.0269 30.6034 25.1308 30.5788 25.9639C31.2033 25.1872 32.0332 24.572 32.989 24.1774C33.9447 23.7828 34.9942 23.622 36.0365 23.7105C37.06 23.6527 38.0851 23.7946 39.0454 24.127C40.0057 24.4594 40.8797 24.9748 41.6105 25.6398C42.3413 26.3048 42.9127 27.1045 43.2875 27.9869C43.6623 28.8694 43.8322 29.8148 43.7861 30.7619V42.2974C43.7861 44.0545 42.6168 43.6949 40.96 43.6949C39.3033 43.6949 38.1315 44.0545 38.1315 42.2974V33.2839C38.174 32.8204 38.1082 32.3538 37.9385 31.9159C37.7689 31.4779 37.4993 31.0788 37.1481 30.7457C36.7969 30.4126 36.3723 30.1532 35.9032 29.9852C35.434 29.8171 34.9312 29.7444 34.429 29.7718C33.9284 29.7596 33.4308 29.846 32.9691 30.0251C32.5074 30.2042 32.0921 30.472 31.7509 30.8108C31.4096 31.1496 31.1501 31.5516 30.9896 31.9901C30.8292 32.4286 30.7713 32.8937 30.82 33.3545V42.3656C30.82 44.1228 29.6261 43.7632 27.9693 43.7632C26.3125 43.7632 25.1432 44.1228 25.1432 42.3656L25.1457 25.47Z" stroke="#FF6B00" stroke-width="1.18362" stroke-linecap="round" stroke-linejoin="round"/>
</svg>
