<svg width="60" height="60" viewBox="0 0 60 60" fill="none" xmlns="http://www.w3.org/2000/svg">
<rect width="59.1808" height="59.1808" rx="29.5904" fill="#FDDFAA"/>
<path fill-rule="evenodd" clip-rule="evenodd" d="M11.8417 29.5871C11.8417 19.926 19.9174 11.8388 29.5845 11.8359C39.2574 11.8301 47.3447 19.9318 47.3447 29.5871C47.3447 39.2512 39.2603 47.3267 29.5845 47.3209C26.8887 47.3256 24.2276 46.7139 21.8045 45.5325L11.8359 47.3354L14.8129 39.4164C12.8783 36.503 11.8449 33.0843 11.8417 29.5871ZM37.2109 36.5207C35.4659 37.8221 32.9644 38.9439 30.5614 37.4018C27.1728 35.2279 24.1756 32.3669 21.9987 28.9784C20.787 27.0914 21.8103 24.1261 23.4567 22.1753C24.2886 21.1898 25.7351 21.3347 26.6887 22.2043L28.9497 24.2682C28.1816 25.0363 27.1931 27.0711 28.0685 28.4335C28.828 29.6219 29.77 30.7872 32.0078 31.4683C33.0513 31.7872 34.5499 31.4046 35.3181 30.6364L37.3472 32.7959C38.3733 33.8916 38.4139 35.6221 37.2109 36.5207Z" fill="#FFA132"/>
<path d="M30.5618 37.4062C32.9648 38.9454 35.4664 37.8236 37.2114 36.5222C38.4143 35.6236 38.3766 33.8931 37.3476 32.7974L35.3185 30.6379C34.5504 31.4061 33.0489 31.7887 32.0083 31.4698C29.7705 30.7887 28.8284 29.6234 28.0661 28.435C27.1936 27.0726 28.182 25.0378 28.9502 24.2697L26.6892 22.2058C25.7355 21.3362 24.2891 21.1913 23.4572 22.1768C21.8107 24.1276 20.7904 27.0929 21.9991 28.9799C24.1731 32.3684 27.1733 35.2323 30.5618 37.4062Z" fill="#FDDFAA"/>
<path d="M30.5618 37.4062C32.9648 38.9454 35.4664 37.8236 37.2114 36.5222C38.4143 35.6236 38.3766 33.8931 37.3476 32.7974L35.3185 30.6379C34.5504 31.4061 33.0489 31.7887 32.0083 31.4698C29.7705 30.7887 28.8284 29.6234 28.0661 28.435C27.1936 27.0726 28.182 25.0378 28.9502 24.2697L26.6892 22.2058C25.7355 21.3362 24.2891 21.1913 23.4572 22.1768C21.8107 24.1276 20.7904 27.0929 21.9991 28.9799C24.1731 32.3684 27.1733 35.2323 30.5618 37.4062Z" stroke="#FF6B00" stroke-width="1.18362" stroke-linecap="round" stroke-linejoin="round"/>
<path d="M29.5845 11.8398C19.9174 11.8398 11.8446 19.927 11.8446 29.5852C11.8484 33.0814 12.8817 36.4991 14.8158 39.4116L11.8359 47.3393L21.8045 45.5364C24.2278 46.7168 26.889 47.3276 29.5845 47.3219C39.2603 47.3277 47.3447 39.2522 47.3447 29.5881C47.3447 19.9357 39.2574 11.834 29.5845 11.8398Z" stroke="#FF6B00" stroke-width="1.18362" stroke-linecap="round" stroke-linejoin="round"/>
</svg>
