<svg width="60" height="60" viewBox="0 0 60 60" fill="none" xmlns="http://www.w3.org/2000/svg">
<rect width="59.1808" height="59.1808" rx="29.5904" fill="#FFE1AC"/>
<path d="M14.2031 41.5173V16.4793C14.2031 15.8756 14.4429 15.2967 14.8698 14.8698C15.2967 14.4429 15.8756 14.2031 16.4793 14.2031H41.5173C42.121 14.2031 42.7 14.4429 43.1268 14.8698C43.5537 15.2967 43.7935 15.8756 43.7935 16.4793V41.5173C43.7935 42.121 43.5537 42.7 43.1268 43.1268C42.7 43.5537 42.121 43.7935 41.5173 43.7935H34.6888V33.0044H36.3049C36.6731 33.0044 37.0263 32.8581 37.2867 32.5977C37.5471 32.3373 37.6933 31.9842 37.6933 31.6159V29.8633C37.6933 29.495 37.5471 29.1419 37.2867 28.8815C37.0263 28.6211 36.6731 28.4748 36.3049 28.4748H34.7798V26.3352C34.7798 24.4232 35.6448 24.4232 36.5097 24.4232H37.6251C37.8083 24.4307 37.9909 24.398 38.16 24.3272C38.3291 24.2564 38.4806 24.1493 38.6038 24.0135C38.7361 23.8875 38.8408 23.7355 38.9113 23.5671C38.9819 23.3986 39.0167 23.2173 39.0135 23.0347V21.3503C39.0196 21.165 38.9891 20.9803 38.9237 20.8067C38.8584 20.6332 38.7594 20.4742 38.6326 20.3389C38.5058 20.2036 38.3535 20.0946 38.1845 20.0182C38.0156 19.9418 37.8332 19.8995 37.6478 19.8936H35.0302C34.2664 19.8649 33.5055 20.0023 32.8 20.2964C32.0946 20.5904 31.4613 21.0342 30.9441 21.5969C30.4268 22.1596 30.0379 22.8278 29.8041 23.5555C29.5704 24.2832 29.4973 25.053 29.5901 25.8117V28.4748H28.1334C27.9491 28.4718 27.7661 28.5055 27.595 28.5739C27.4239 28.6423 27.2682 28.7441 27.1368 28.8733C27.0055 29.0026 26.9012 29.1567 26.83 29.3266C26.7588 29.4966 26.7221 29.679 26.7221 29.8633V31.6159C26.7221 31.8002 26.7588 31.9826 26.83 32.1526C26.9012 32.3225 27.0055 32.4766 27.1368 32.6059C27.2682 32.7351 27.4239 32.8369 27.595 32.9053C27.7661 32.9737 27.9491 33.0074 28.1334 33.0044H29.5901V43.7935H16.4793C15.8756 43.7935 15.2967 43.5537 14.8698 43.1268C14.4429 42.7 14.2031 42.121 14.2031 41.5173Z" fill="#FFA132"/>
<path d="M14.2031 41.5173V16.4793C14.2031 15.8756 14.4429 15.2967 14.8698 14.8698C15.2967 14.4429 15.8756 14.2031 16.4793 14.2031H41.5173C42.121 14.2031 42.7 14.4429 43.1268 14.8698C43.5537 15.2967 43.7935 15.8756 43.7935 16.4793V41.5173C43.7935 42.121 43.5537 42.7 43.1268 43.1268C42.7 43.5537 42.121 43.7935 41.5173 43.7935H34.6888V33.0044H36.3049C36.6731 33.0044 37.0263 32.8581 37.2867 32.5977C37.5471 32.3373 37.6933 31.9842 37.6933 31.6159V29.8633C37.6933 29.495 37.5471 29.1419 37.2867 28.8815C37.0263 28.6211 36.6731 28.4748 36.3049 28.4748H34.7798V26.3352C34.7798 24.4232 35.6448 24.4232 36.5097 24.4232H37.6251C37.8083 24.4307 37.9909 24.398 38.16 24.3272C38.3291 24.2564 38.4806 24.1493 38.6038 24.0135C38.7361 23.8875 38.8408 23.7355 38.9113 23.5671C38.9819 23.3986 39.0167 23.2173 39.0135 23.0347V21.3503C39.0196 21.165 38.9891 20.9803 38.9237 20.8067C38.8584 20.6332 38.7594 20.4742 38.6326 20.3389C38.5058 20.2036 38.3535 20.0946 38.1845 20.0182C38.0156 19.9418 37.8332 19.8995 37.6478 19.8936H35.0302C34.2664 19.8649 33.5055 20.0023 32.8 20.2964C32.0946 20.5904 31.4613 21.0342 30.9441 21.5969C30.4268 22.1596 30.0379 22.8278 29.8041 23.5555C29.5704 24.2832 29.4973 25.053 29.5901 25.8117V28.4748H28.1334C27.9491 28.4718 27.7661 28.5055 27.595 28.5739C27.4239 28.6423 27.2682 28.7441 27.1368 28.8733C27.0055 29.0026 26.9012 29.1567 26.83 29.3266C26.7588 29.4966 26.7221 29.679 26.7221 29.8633V31.6159C26.7221 31.8002 26.7588 31.9826 26.83 32.1526C26.9012 32.3225 27.0055 32.4766 27.1368 32.6059C27.2682 32.7351 27.4239 32.8369 27.595 32.9053C27.7661 32.9737 27.9491 33.0074 28.1334 33.0044H29.5901V43.7935H16.4793C15.8756 43.7935 15.2967 43.5537 14.8698 43.1268C14.4429 42.7 14.2031 42.121 14.2031 41.5173Z" stroke="#FF6B00" stroke-width="1.18362" stroke-linecap="round" stroke-linejoin="round"/>
</svg>
