<svg width="60" height="60" viewBox="0 0 60 60" fill="none" xmlns="http://www.w3.org/2000/svg">
<rect width="59.1808" height="59.1808" rx="29.5904" fill="#FFE1AC"/>
<path d="M19.583 14.7949H38.4131C39.6829 14.7949 40.9009 15.2995 41.7988 16.1973C42.6968 17.0952 43.2021 18.3131 43.2021 19.583V38.4131C43.2021 39.683 42.6968 40.9009 41.7988 41.7988C40.9009 42.6968 39.683 43.2021 38.4131 43.2021H19.583C18.3131 43.2021 17.0952 42.6968 16.1973 41.7988C15.2995 40.9009 14.7949 39.6829 14.7949 38.4131V19.583C14.795 18.3131 15.2993 17.0952 16.1973 16.1973C17.0952 15.2993 18.3131 14.795 19.583 14.7949ZM18.3193 36.0098H25.1006C26.0312 36.0095 26.9393 35.7203 27.6982 35.1816C28.4571 34.643 29.0295 33.8812 29.3369 33.0029C29.3388 32.9975 29.3399 32.9918 29.3418 32.9863C29.6436 33.6532 30.0728 34.256 30.5801 34.7607V34.7617C31.5927 35.7729 32.9949 36.4688 34.501 36.4688C35.9496 36.4687 37.4152 36.0431 38.6455 35.3174L39.1494 35.0205L38.8584 34.5127L37.6123 32.3408H39.6777V30.374C39.6776 27.5872 37.7675 24.7384 34.501 24.7383C32.7438 24.7383 31.3021 25.4356 30.3145 26.5938C29.658 27.3637 29.227 28.3071 29.0166 29.3271C28.814 28.9653 28.5598 28.6346 28.2646 28.3408C28.5243 27.7719 28.6652 27.1544 28.6719 26.5254C28.6802 25.7322 28.4786 24.9505 28.0869 24.2607C27.6951 23.5709 27.1271 22.9968 26.4414 22.5977C25.7565 22.199 24.9776 21.9865 24.1836 21.9863H18.3193V36.0098ZM24.6416 30.5078C24.7746 30.5078 24.9064 30.5341 25.0293 30.585C25.1521 30.6359 25.2644 30.7097 25.3584 30.8037C25.4524 30.8978 25.5263 31.01 25.5771 31.1328C25.628 31.2557 25.6543 31.3875 25.6543 31.5205C25.6543 31.6534 25.628 31.7854 25.5771 31.9082C25.5263 32.0308 25.4522 32.1425 25.3584 32.2363C25.2643 32.3304 25.1522 32.4052 25.0293 32.4561C24.9065 32.5069 24.7746 32.5332 24.6416 32.5332H22.2529V30.5078H24.6416ZM35.7178 32.3408C35.3242 32.4628 34.9138 32.5285 34.498 32.5322C34.2723 32.5317 34.0398 32.4644 33.8203 32.3408H35.7178ZM34.501 28.2139C35.0409 28.2139 35.4677 28.4499 35.7607 28.8652H32.9004C32.9963 28.7523 33.1023 28.6554 33.2178 28.5742C33.5405 28.3474 33.9695 28.2139 34.501 28.2139ZM23.7256 25.4639C23.8586 25.4639 23.9904 25.4901 24.1133 25.541C24.2362 25.5919 24.3483 25.6667 24.4424 25.7607C24.5362 25.8547 24.6103 25.9662 24.6611 26.0889C24.712 26.2117 24.7383 26.3436 24.7383 26.4766C24.7383 26.6095 24.712 26.7414 24.6611 26.8643C24.6103 26.9869 24.5362 27.0985 24.4424 27.1924C24.3483 27.2864 24.2362 27.3612 24.1133 27.4121C23.9904 27.463 23.8585 27.4893 23.7256 27.4893H22.2529V25.4639H23.7256ZM31.1582 24.5459H38.3018V21.5283H31.1582V24.5459Z" fill="#FFA132" stroke="#FF6B00" stroke-width="1.18362"/>
</svg>
